<?xml version="1.0" encoding="utf-8"?>
<!-- Generator: Adobe Illustrator 19.0.0, SVG Export Plug-In . SVG Version: 6.00 Build 0)  -->
<svg version="1.1" id="Layer_1" xmlns="http://www.w3.org/2000/svg" xmlns:xlink="http://www.w3.org/1999/xlink" x="0px" y="0px"
	 viewBox="94 297 800 194" style="enable-background:new 94 297 800 194;" xml:space="preserve">
<style type="text/css">
	.st0{fill:#4196CC;}
	.st1{fill:#F75162;}
</style>
<path class="st0" d="M588.3,362.2c0-3.2-0.3-6.5-0.9-9.7c-2.2-12.8-8.9-24.7-18.6-33.4c-4.8-4.3-10.4-7.8-16.4-10.4
	c-6-2.5-12.4-4-18.9-4.4s-13,0.2-19.3,1.9c-6.3,1.7-12.2,4.5-17.6,8.1c-1.3,0.9-2.6,1.9-3.9,2.9l-0.9,0.8l-0.5,0.4
	c0,0-0.1,0-0.1,0.1c-0.1,0.1-0.1,0.1-0.2,0.2c-0.1,0-0.1,0.1-0.2,0.1c-0.6,0.3-1.3,0.4-1.9,0.3c-0.3-0.1-0.6-0.2-0.9-0.4
	c-0.1-0.1-0.1-0.1-0.2-0.1l-0.1-0.1h-0.1c0,0,0,0-0.1-0.1l-1.9-1.5c-2.6-2-5.2-3.9-8-5.5c-5.6-3.4-12.2-4.9-18.5-5.5
	c-6.4-0.6-12.8-0.1-18.9,1.4s-11.8,4-16.9,7.4s-9.5,7.5-13.1,12.2c-7.2,9.4-10.8,21-10.4,32c1.1-5.4,3-10.6,5.7-15.2s6.1-8.7,9.9-12
	c3.9-3.4,8.2-6,12.8-7.9c4.6-1.8,9.4-3,14.1-3.2c4.8-0.2,9.5,0.2,13.9,1.5c4.5,1.2,8.4,3.4,12.4,5.3c2,1,3.9,2.2,5.7,3.6l1.3,1.1
	l0.6,0.5l0.7,0.5c0.5,0.4,1,0.7,1.5,1c2.1,1.3,4.3,2.2,6.7,2.6c4.7,1,9.8,0.2,14.1-2.1c0.5-0.3,1-0.6,1.5-0.9s1-0.7,1.5-1.1l1.7-1.4
	c0.9-0.7,1.8-1.4,2.7-2c7.4-5.1,16.5-7.6,25.5-6.9c4.5,0.3,8.9,1.4,13.1,3.1c4.1,1.8,8,4.2,11.3,7.2c6.7,6,11.4,14.3,12.9,23.1
	c0.4,2.2,0.6,4.5,0.6,6.7c0,0.6,0,1,0,1.5s-0.1,1-0.1,1.5c-0.1,1-0.3,2-0.5,3.1c-0.6,2.7-1.6,5.5-2.8,8.3H369V328
	c0-4.7-3.8-8.5-8.5-8.5h-25c-0.3,0-0.7,0-1,0.1c-0.3,0-0.7-0.1-1-0.1h-25c-4.7,0-8.5,3.8-8.5,8.5v21.5h-18.5c-4.7,0-8.5,3.8-8.5,8.5
	v18.8h-3.3h-3.4h-0.9h-0.6c-0.3,0-0.5,0-0.8,0c-1,0.1-2,0.2-3,0.4c-4,0.8-7.7,2.9-10.5,5.7c-2.8,2.9-4.8,6.6-5.6,10.6
	s-0.4,8.1,1.2,11.9c1.6,3.8,4.2,7,7.6,9.3c3.4,2.3,7.4,3.5,11.5,3.6l3.5,0.1c1.1,0,2.3,0,3.4,0c0.3,0,0.6,0,0.9,0v17.5
	c0,4.7,3.8,8.5,8.5,8.5H300v21.5c0,4.7,3.8,8.5,8.5,8.5h25c0.3,0,0.7,0,1-0.1c0.3,0,0.7,0.1,1,0.1h25c4.7,0,8.5-3.8,8.5-8.5v-71.3
	h203.5l0,0c0.3,0,0.7,0,1-0.1l0,0c3-0.3,5.6-2.2,6.9-4.7l0,0c0,0,0-0.1,0.1-0.1v-0.1c2.8-5.3,5.2-10.9,6.7-17.3
	c0.4-1.6,0.7-3.3,0.9-5c0.1-0.9,0.2-1.7,0.2-2.6C588.3,364,588.3,363,588.3,362.2z M272.1,400.1c-1.1,0-2.3,0-3.4,0l-3.4,0.1
	c-1.1,0.2-2.1-0.6-2.5-1.6c-0.2-0.5-0.3-1.1-0.2-1.6c0.1-0.5,0.4-1,0.7-1.4c0.4-0.4,0.9-0.7,1.4-0.8c0.1,0,0.3,0,0.4-0.1h0.3h0.9
	h3.4h3.3v5.3C272.7,400.1,272.4,400.1,272.1,400.1z M288,429.6v-65h12v65H288z M315,436.1v-78v-23.5h12v125h-12V436.1z M354,459.6
	h-12v-125h12V459.6z"/>
<path class="st1" d="M738.8,388.6c-2.1-3.5-5.3-6.2-9-7.7c-1.9-0.7-3.8-1.2-5.8-1.2c-0.2,0-0.5,0-0.7,0s-0.5,0-0.7,0h-1l-1.9,0.1
	L715,380v-22c0-4.7-3.8-8.5-8.5-8.5H688V328c0-4.7-3.8-8.5-8.5-8.5h-25c-0.3,0-0.7,0-1,0.1c-0.3,0-0.7-0.1-1-0.1h-25
	c-4.7,0-8.5,3.8-8.5,8.5v72.3h-11.6c-10.4,0.1-20.7,0-31.1,0.2h-3.9h-1.9c-0.4,0-1.9,0-2.9,0.1c-4.5,0.5-8.8,2.5-12,5.8
	c-0.4,0.4-0.8,0.8-1.2,1.2l-0.9,1.1l-1.1,1.5l-2.3,3c-1.6,1.9-3.1,3.9-4.7,5.8c-13,15.3-27.6,29.6-42.8,43.3l-5.7,5.1l-2.9,2.5
	l-1.4,1.2c-0.2,0.2-0.5,0.4-0.7,0.5c-1,0.6-2.2,0.9-3.5,0.8c-0.6-0.1-1.2-0.2-1.8-0.5c-0.1-0.1-0.3-0.1-0.4-0.2s-0.3-0.2-0.4-0.3
	l-1.5-1.1c-8.2-6.1-16.4-12.4-24.3-18.9c-8-6.5-15.8-13.2-23.3-20.2s-14.9-14.3-21.7-22.1c5.3,9,11.5,17.4,18.1,25.5
	s13.7,15.8,21.1,23.2c7.4,7.4,15,14.6,22.9,21.5l1.5,1.3c0.4,0.3,0.8,0.6,1.2,0.9l1.2,0.8c1.7,1,3.5,1.7,5.5,2.1
	c3.9,0.8,8,0.2,11.6-1.6c0.9-0.5,1.7-1,2.6-1.6l1.7-1.2l3.1-2.4c2.1-1.6,4.2-3.2,6.2-4.8c8.2-6.5,16.3-13.3,24.1-20.4
	c3.9-3.6,7.7-7.2,11.5-10.9c1.9-1.9,3.7-3.8,5.6-5.7c1.9-1.9,3.6-3.9,5.4-5.9c1.8-2,3.5-4,5.3-6.1l2.6-3.1l1.3-1.6
	c0.3-0.4,0.2-0.3,0.3-0.4c0.1,0,0.1-0.1,0.2-0.2c0.5-0.4,1.1-0.7,1.8-0.8l6.8,0.1c10.4,0.1,20.7,0.1,31.1,0.2h11.6v47.8
	c0,4.7,3.8,8.5,8.5,8.5h25c0.3,0,0.7,0,1-0.1c0.3,0,0.7,0.1,1,0.1h25c4.7,0,8.5-3.8,8.5-8.5v-21.5h18.5c4.7,0,8.5-3.8,8.5-8.5V417
	h1.1l3.9-0.1l1.9-0.1h1.1c0.5,0,1-0.1,1.6-0.1c4.2-0.5,8.2-2.4,11.1-5.3c3-2.9,4.9-6.8,5.4-10.9
	C741.7,396.3,740.8,392.1,738.8,388.6z M634,334.6h12v125h-12V334.6z M673,459.6h-12v-125h12v23.5v78V459.6z M700,429.6h-12v-65h12
	V429.6z M727.6,398.3c-0.2,1-0.8,2-1.6,2.6c-0.8,0.7-1.8,1-2.7,1l-7-0.2h-1.1v-10.1l4.7,0.2l1.9,0.1h1c0.2,0,0.2,0,0.3,0
	s0.2,0,0.2,0c0.6,0.1,1.2,0.3,1.7,0.6c1.1,0.6,1.9,1.5,2.4,2.5C727.7,396.1,727.8,397.2,727.6,398.3z"/>
</svg>
